<svg width="48" height="48" viewBox="0 0 48 48" fill="none" xmlns="http://www.w3.org/2000/svg">
<g clip-path="url(#clip0_5903_99)">
<path d="M23.9936 19.3333H28.6399C26.0954 19.344 24.0294 21.3945 23.9936 23.933V19.3333Z" fill="white"/>
<path fill-rule="evenodd" clip-rule="evenodd" d="M24 0C10.7452 0 0 10.7452 0 24C0 37.2548 10.7452 48 24 48C37.2548 48 48 37.2548 48 24C48 10.7452 37.2548 0 24 0ZM14.6602 14.6667C14.6602 12.0907 16.7509 10 19.3269 10H28.6599C31.2359 10 33.3266 12.0907 33.3266 14.6667C33.3266 17.2381 31.2434 19.3258 28.6737 19.3333C31.2434 19.3407 33.3266 21.4286 33.3266 24C33.3266 26.576 31.2359 28.6667 28.6599 28.6667C26.1062 28.6667 24.0295 26.6121 23.9936 24.0669V28.6665H19.3269C16.7509 28.6667 14.6602 26.576 14.6602 24C14.6602 21.4286 16.7434 19.3407 19.3131 19.3333C16.7434 19.3258 14.6602 17.2381 14.6602 14.6667ZM23.9936 33.3333C23.9936 35.9093 21.9029 38 19.3269 38C16.7509 38 14.6602 35.9093 14.6602 33.3333C14.6602 30.7573 16.7509 28.6665 19.3269 28.6665H23.9936V33.3333Z" fill="white"/>
</g>
<defs>
<clipPath id="clip0_5903_99">
<rect width="48" height="48" fill="white"/>
</clipPath>
</defs>
</svg>
