<svg width="48" height="48" viewBox="0 0 48 48" fill="none" xmlns="http://www.w3.org/2000/svg">
<g clip-path="url(#clip0_5903_98)">
<path fill-rule="evenodd" clip-rule="evenodd" d="M24 0C10.7452 0 0 10.7452 0 24C0 37.2548 10.7452 48 24 48C37.2548 48 48 37.2548 48 24C48 10.7452 37.2548 0 24 0ZM4 24C4 12.955 12.95 4 24 4C35.045 4 44 12.955 44 24C44 32.825 38.275 40.325 30.2733 42.9483C29.2483 43.1483 28.8983 42.5233 28.8983 41.9983C28.8983 41.7838 28.9011 41.4057 28.9047 40.8992C28.9121 39.8715 28.9233 38.3147 28.9233 36.5217C28.9233 34.6483 28.2733 33.4217 27.5733 32.8217C32.0233 32.33 36.6983 30.6383 36.6983 22.955C36.6983 20.7717 35.9233 18.9883 34.6483 17.5883C34.8483 17.0833 35.5233 15.05 34.4483 12.295C34.4483 12.295 32.7733 11.7583 28.9733 14.345C27.3733 13.9 25.6733 13.68 23.9733 13.67C22.2733 13.68 20.5733 13.9 18.9733 14.345C15.1483 11.7583 13.4733 12.295 13.4733 12.295C12.3983 15.05 13.0733 17.0833 13.2983 17.5883C12.015 18.9883 11.24 20.7717 11.24 22.955C11.24 30.6183 15.9083 32.3383 20.35 32.8383C19.7783 33.3383 19.2633 34.22 19.0833 35.5133C17.94 36.025 15.0417 36.9083 13.2583 33.85C13.2583 33.85 12.2033 31.93 10.195 31.79C10.195 31.79 8.24333 31.765 10.055 33.005C10.055 33.005 11.37 33.6217 12.28 35.93C12.28 35.93 13.4533 39.82 19.0167 38.6133C19.0213 39.5389 19.0285 40.3385 19.034 40.948C19.0384 41.436 19.0417 41.8021 19.0417 42.0133C19.0417 42.545 18.675 43.1633 17.675 42.975C9.73 40.3333 4 32.8383 4 24Z" fill="white"/>
</g>
<defs>
<clipPath id="clip0_5903_98">
<rect width="48" height="48" fill="white"/>
</clipPath>
</defs>
</svg>
