<svg width="240" height="234" viewBox="0 0 240 234" fill="none" xmlns="http://www.w3.org/2000/svg">
<g clip-path="url(#clip0_5_83)">
<path d="M42.5 1.88608e-05H197.5C203.083 -0.00524284 208.612 1.09046 213.77 3.22442C218.929 5.35838 223.616 8.48871 227.564 12.4362C231.511 16.3838 234.642 21.071 236.776 26.2297C238.91 31.3885 240.005 36.9174 240 42.5V191.5C240.005 197.083 238.91 202.612 236.776 207.77C234.642 212.929 231.511 217.616 227.564 221.564C223.616 225.511 218.929 228.642 213.77 230.776C208.612 232.91 203.083 234.005 197.5 234H42.5C36.9174 234.005 31.3885 232.91 26.2297 230.776C21.071 228.642 16.3838 225.511 12.4362 221.564C8.48871 217.616 5.35838 212.929 3.22442 207.77C1.09046 202.612 -0.00524284 197.083 1.88608e-05 191.5V42.5C-0.00524284 36.9174 1.09046 31.3885 3.22442 26.2297C5.35838 21.071 8.48871 16.3838 12.4362 12.4362C16.3838 8.48871 21.071 5.35838 26.2297 3.22442C31.3885 1.09046 36.9174 -0.00524284 42.5 1.88608e-05Z" fill="#470137"/>
<path d="M126.2 61.5L96.2 111L128.2 163.5C128.411 163.862 128.482 164.289 128.4 164.7C128.3 165.1 127.9 164.8 127.3 164.9H104.4C102.8 164.9 101.7 164.8 101 163.8C98.9001 159.6 96.7 155.5 94.6 151.3C92.5 147.1 90.2001 143 87.8001 138.7C85.4001 134.4 83 130.1 80.6 125.7H80.4001C78.3001 130 76 134.3 73.7 138.6C71.4 142.9 69.1001 147.2 66.9001 151.4C64.7001 155.6 62.3001 159.9 60.0001 164C59.6001 165 58.8001 165.1 57.7001 165.1H35.7001C35.3001 165.1 35.0001 165.3 35.0001 164.8C34.9554 164.613 34.9502 164.418 34.9846 164.229C35.019 164.04 35.0924 163.86 35.2001 163.7L66.3001 112.7L36.0001 61.4C35.7001 61 35.6001 60.6 35.8001 60.4C35.922 60.2575 36.0766 60.1466 36.2508 60.0769C36.425 60.0073 36.6134 59.9809 36.8001 60H59.5001C59.973 60.0103 60.4431 60.0775 60.9001 60.2C61.3007 60.4156 61.6436 60.7243 61.9001 61.1C63.8001 65.4 66.0001 69.7 68.3001 74C70.6001 78.3 73 82.5 75.5 86.7C78 90.9 80.1 95.1 82.2 99.4H82.4001C84.5 95 86.7001 90.7 88.9001 86.5C91.1001 82.3 93.4 78.1 95.7 73.9C98 69.7 100.2 65.4 102.4 61.3C102.476 60.9064 102.688 60.5522 103 60.3C103.396 60.0815 103.857 60.0107 104.3 60.1H125.4C125.518 60.0735 125.641 60.0706 125.76 60.0914C125.879 60.1123 125.993 60.1565 126.095 60.2215C126.198 60.2866 126.286 60.3711 126.355 60.4704C126.425 60.5697 126.474 60.6817 126.5 60.8C126.6 60.9 126.4 61.3 126.2 61.5Z" fill="#FF61F6"/>
<path d="M172.4 167C164.987 167.122 157.642 165.584 150.9 162.5C144.628 159.567 139.371 154.832 135.8 148.9C132.1 142.8 130.3 135.2 130.3 126.1C130.199 118.7 132.099 111.409 135.8 105C139.595 98.486 145.091 93.1278 151.7 89.5C158.7 85.6 167.1 83.7 177 83.7C177.701 83.6921 178.403 83.7255 179.1 83.8C180 83.9 181 83.9 182.2 84V52.4C182.2 51.7 182.5 51.3 183.2 51.3H203.5C203.724 51.2697 203.951 51.3249 204.137 51.4546C204.322 51.5843 204.452 51.779 204.5 52V147.4C204.5 149.2 204.6 151.2 204.7 153.4C204.8 155.6 205 157.5 205.1 159.2C205.121 159.538 205.036 159.874 204.857 160.161C204.678 160.448 204.413 160.671 204.1 160.8C198.862 163.001 193.395 164.611 187.8 165.6C182.718 166.517 177.564 166.985 172.4 167ZM182.2 147V103C181.31 102.785 180.408 102.618 179.5 102.5C178.4 102.4 177.3 102.3 176.2 102.3C172.28 102.256 168.406 103.147 164.9 104.9C161.483 106.603 158.557 109.15 156.4 112.3C154.2 115.5 153.1 119.8 153.1 125C153.013 128.51 153.59 132.004 154.8 135.3C155.767 137.965 157.303 140.388 159.3 142.4C161.228 144.24 163.555 145.609 166.1 146.4C168.779 147.277 171.581 147.716 174.4 147.7C175.9 147.7 177.3 147.6 178.6 147.5C179.822 147.587 181.048 147.417 182.2 147Z" fill="#FF61F6"/>
</g>
<defs>
<clipPath id="clip0_5_83">
<rect width="240" height="234" fill="white"/>
</clipPath>
</defs>
</svg>
